<svg width="13" height="12" viewBox="0 0 13 12" fill="none" xmlns="http://www.w3.org/2000/svg">
  <path d="M8.17442 3.62791C8.40561 3.62791 8.59302 3.44049 8.59302 3.2093C8.59302 2.97811 8.40561 2.7907 8.17442 2.7907H3.15116C2.91997 2.7907 2.73256 2.97811 2.73256 3.2093C2.73256 3.44049 2.91997 3.62791 3.15116 3.62791H8.17442Z" fill="black" fill-opacity="0.38" />
  <path d="M10.2674 6C10.2674 6.23119 10.08 6.4186 9.84884 6.4186L3.15116 6.4186C2.91997 6.4186 2.73256 6.23119 2.73256 6C2.73256 5.76881 2.91997 5.5814 3.15116 5.5814L9.84884 5.5814C10.08 5.5814 10.2674 5.76881 10.2674 6Z" fill="black" fill-opacity="0.38" />
  <path d="M5.94186 9.2093C6.17305 9.2093 6.36047 9.02189 6.36047 8.7907C6.36047 8.55951 6.17305 8.37209 5.94186 8.37209H3.15116C2.91997 8.37209 2.73256 8.55951 2.73256 8.7907C2.73256 9.02189 2.91997 9.2093 3.15116 9.2093H5.94186Z" fill="black" fill-opacity="0.38" />
  <path fill-rule="evenodd" clip-rule="evenodd" d="M12.5 5.96798C12.5 4.67957 12.5 3.66988 12.3941 2.88207C12.2857 2.0757 12.0594 1.43941 11.56 0.939983C11.0606 0.440554 10.4243 0.214318 9.61793 0.105905C8.83012 -1.27582e-05 7.82043 -7.06776e-06 6.53202 1.18068e-07L6.46797 1.18068e-07C5.17957 -7.06776e-06 4.16987 -1.27582e-05 3.38207 0.105905C2.5757 0.214318 1.93941 0.440554 1.43998 0.939983C0.940554 1.43941 0.714317 2.0757 0.605905 2.88207C0.499987 3.66988 0.499992 4.67957 0.499999 5.96798V6.03202C0.499992 7.32043 0.499987 8.33012 0.605905 9.11793C0.714317 9.9243 0.940554 10.5606 1.43998 11.06C1.93941 11.5594 2.5757 11.7857 3.38207 11.8941C4.16988 12 5.17957 12 6.46798 12H6.53202C7.82043 12 8.83012 12 9.61793 11.8941C10.4243 11.7857 11.0606 11.5594 11.56 11.06C12.0594 10.5606 12.2857 9.9243 12.3941 9.11793C12.5 8.33013 12.5 7.32043 12.5 6.03203V5.96798ZM10.968 1.53198C11.286 1.84993 11.4684 2.2801 11.5644 2.99362C11.6619 3.71919 11.6628 4.67262 11.6628 6C11.6628 7.32738 11.6619 8.28081 11.5644 9.00638C11.4684 9.7199 11.286 10.1501 10.968 10.468C10.6501 10.786 10.2199 10.9684 9.50638 11.0644C8.78081 11.1619 7.82738 11.1628 6.5 11.1628C5.17262 11.1628 4.21919 11.1619 3.49362 11.0644C2.7801 10.9684 2.34993 10.786 2.03198 10.468C1.71403 10.1501 1.53158 9.7199 1.43565 9.00638C1.3381 8.28081 1.33721 7.32738 1.33721 6C1.33721 4.67262 1.3381 3.71919 1.43565 2.99362C1.53158 2.2801 1.71403 1.84993 2.03198 1.53198C2.34993 1.21403 2.7801 1.03158 3.49362 0.935649C4.21919 0.838099 5.17262 0.83721 6.5 0.83721C7.82738 0.83721 8.78081 0.838099 9.50638 0.935649C10.2199 1.03158 10.6501 1.21403 10.968 1.53198Z" fill="black" fill-opacity="0.38" />
</svg>